<svg xmlns="http://www.w3.org/2000/svg" xmlns:xlink="http://www.w3.org/1999/xlink" viewBox="0 0 88.34 156.65"><defs><style>.cls-1{fill:#020202;}.cls-2{fill:url(#New_Gradient_Swatch_3);}.cls-3{fill:url(#New_Gradient_Swatch_5);}.cls-4{fill:url(#New_Gradient_Swatch_5-2);}.cls-5{fill:url(#New_Gradient_Swatch_5-3);}.cls-6{fill:url(#New_Gradient_Swatch_5-4);}.cls-7{fill:url(#linear-gradient);}</style><radialGradient id="New_Gradient_Swatch_3" cx="44.36" cy="84.3" r="25.18" gradientTransform="translate(0 0.72) scale(1 1.02)" gradientUnits="userSpaceOnUse"><stop offset="0" stop-color="#fff"/><stop offset="0.08" stop-color="#99c"/><stop offset="0.27" stop-color="#4d4d59"/><stop offset="0.67" stop-color="#300"/><stop offset="1" stop-color="red"/></radialGradient><linearGradient id="New_Gradient_Swatch_5" x1="-249.81" y1="-104.86" x2="-249.81" y2="-161.68" gradientTransform="translate(-179.33 -57.26) rotate(180)" gradientUnits="userSpaceOnUse"><stop offset="0" stop-color="#ff0020"/><stop offset="0.15" stop-color="#fa001f"/><stop offset="0.33" stop-color="#eb001e"/><stop offset="0.52" stop-color="#d3001b"/><stop offset="0.72" stop-color="#b10018"/><stop offset="0.92" stop-color="#860013"/><stop offset="1" stop-color="#740011"/></linearGradient><linearGradient id="New_Gradient_Swatch_5-2" x1="5.6" y1="59.11" x2="62.74" y2="59.11" gradientTransform="matrix(1, 0, 0, 1, 0, 0)" xlink:href="#New_Gradient_Swatch_5"/><linearGradient id="New_Gradient_Swatch_5-3" x1="17.88" y1="124.81" x2="17.88" y2="67.73" gradientTransform="matrix(1, 0, 0, 1, 0, 0)" xlink:href="#New_Gradient_Swatch_5"/><linearGradient id="New_Gradient_Swatch_5-4" x1="-262.91" y1="-170.09" x2="-205.39" y2="-170.09" xlink:href="#New_Gradient_Swatch_5"/><linearGradient id="linear-gradient" x1="3.88" y1="20.04" x2="70.94" y2="20.04" gradientUnits="userSpaceOnUse"><stop offset="0" stop-color="#12b212"/><stop offset="1" stop-color="lime"/></linearGradient></defs><title>Asset 3</title><g id="Layer_2" data-name="Layer 2"><g id="Home_Logo" data-name="Home Logo"><path d="M12.22,140.26a8.15,8.15,0,0,1,5,1.29,4.36,4.36,0,0,1,1.66,3.66,5.08,5.08,0,0,1-.48,2.31,3.94,3.94,0,0,1-1.38,1.54,6.26,6.26,0,0,1-2.2.85,14.74,14.74,0,0,1-2.93.26H9.76v6.16H8.2V140.69a11.22,11.22,0,0,1,1.94-.33Q11.25,140.26,12.22,140.26Zm.07,1.36q-.87,0-1.48.06l-1,.1v7h2a15.79,15.79,0,0,0,2.29-.15,5.09,5.09,0,0,0,1.75-.55A2.79,2.79,0,0,0,16.89,147a3.76,3.76,0,0,0,.39-1.82,3.28,3.28,0,0,0-.43-1.75,3.14,3.14,0,0,0-1.13-1.09,4.94,4.94,0,0,0-1.6-.56A10.39,10.39,0,0,0,12.29,141.61Z"/><path d="M24.64,140.85a1.11,1.11,0,0,1-.32.84,1.14,1.14,0,0,1-1.56,0,1.25,1.25,0,0,1,0-1.68,1.14,1.14,0,0,1,1.56,0A1.11,1.11,0,0,1,24.64,140.85Zm-.34,15.48H22.8V144.44h1.5Z"/><path d="M28,148.95h5.2v1.45H28Z"/><path class="cls-1" d="M36.65,156.33V139l3.43-.55v5.8a7.07,7.07,0,0,1,.89-.22,5.53,5.53,0,0,1,1-.1,6.49,6.49,0,0,1,2.45.4A3.81,3.81,0,0,1,46,145.5a4.41,4.41,0,0,1,.83,1.75,9.72,9.72,0,0,1,.24,2.25v6.83H43.67v-6.42a4.73,4.73,0,0,0-.43-2.35,1.7,1.7,0,0,0-1.58-.69,4.38,4.38,0,0,0-.86.08l-.72.17v9.2Z"/><path class="cls-1" d="M62.6,150.26a7.85,7.85,0,0,1-.41,2.61,5.67,5.67,0,0,1-1.2,2,5.39,5.39,0,0,1-1.87,1.3,6.69,6.69,0,0,1-4.88,0,5.37,5.37,0,0,1-1.87-1.3,5.94,5.94,0,0,1-1.22-2,7.49,7.49,0,0,1-.44-2.61,7.23,7.23,0,0,1,.45-2.6,5.88,5.88,0,0,1,1.24-2,5.58,5.58,0,0,1,1.89-1.29,6.45,6.45,0,0,1,4.78,0,5.45,5.45,0,0,1,1.87,1.29,5.85,5.85,0,0,1,1.22,2A7.4,7.4,0,0,1,62.6,150.26Zm-3.5,0a4.31,4.31,0,0,0-.63-2.5,2.07,2.07,0,0,0-1.81-.91,2.1,2.1,0,0,0-1.82.91,4.25,4.25,0,0,0-.64,2.5,4.36,4.36,0,0,0,.64,2.52,2.08,2.08,0,0,0,1.82.93,2.05,2.05,0,0,0,1.81-.93A4.43,4.43,0,0,0,59.1,150.26Z"/><path class="cls-1" d="M71.15,156.56a8.58,8.58,0,0,1-2.43-.32,3.6,3.6,0,0,1-1.47-.84,2.78,2.78,0,0,1-.74-1.31,7.05,7.05,0,0,1-.2-1.74V139l3.43-.55v13.18a4.44,4.44,0,0,0,.07.83,1.44,1.44,0,0,0,.26.62,1.41,1.41,0,0,0,.56.41,3.1,3.1,0,0,0,1,.21Z"/><path class="cls-1" d="M74.1,150.38a7.39,7.39,0,0,1,.49-2.82,6,6,0,0,1,1.3-2,5.39,5.39,0,0,1,1.85-1.22,5.79,5.79,0,0,1,2.15-.41A5.35,5.35,0,0,1,84,145.49a6.5,6.5,0,0,1,1.5,4.63c0,.2,0,.42,0,.66s0,.45,0,.63H77.61a2.28,2.28,0,0,0,1,1.68,4,4,0,0,0,2.35.62,9.88,9.88,0,0,0,1.85-.17,6.93,6.93,0,0,0,1.48-.42l.46,2.78a4.71,4.71,0,0,1-.74.28,9.62,9.62,0,0,1-1,.24q-.56.1-1.21.17a12.11,12.11,0,0,1-1.29.07,7.61,7.61,0,0,1-2.84-.48,5.53,5.53,0,0,1-2-1.32,5.26,5.26,0,0,1-1.17-2A7.88,7.88,0,0,1,74.1,150.38Zm8-1.31a3.57,3.57,0,0,0-.15-.85,2.16,2.16,0,0,0-.39-.74,2.1,2.1,0,0,0-.67-.53,2.17,2.17,0,0,0-1-.21,2.31,2.31,0,0,0-1,.2,2,2,0,0,0-.69.52,2.31,2.31,0,0,0-.43.75,4.91,4.91,0,0,0-.22.86Z"/><rect class="cls-2" x="16.88" y="63.33" width="54.95" height="46" rx="12" ry="12"/><path class="cls-3" d="M58.3,47.62c-.55-.48,10.38,9.71-.3,25.16-4.76,6.89-6.6,13.7-4.57,19.82,2.43,7.37,9.77,11.58,15.83,11.79,15.81.56,26.26-17.68,13.12-32.1Z"/><path class="cls-4" d="M5.6,72.74a16.06,16.06,0,0,1,6.65-4c6.37-2.1,13-.28,18.69,2.93,6.68,3.79,14.61,7.44,22.1,3.62A18.13,18.13,0,0,0,62.74,60a18.49,18.49,0,0,0-6.94-14.8A18.2,18.2,0,0,0,39.75,42a23.32,23.32,0,0,0-10.4,6.44l-7.54,7.72L5.92,72.41Z"/><path class="cls-5" d="M30.77,124.72c.91,1.33-10.3-12-.43-25.36,5-6.74,6.6-13.7,4.57-19.82C32.48,72.17,25.15,68,19.09,67.74,3.27,67.18-7.18,85.42,6,99.84Z"/><path class="cls-6" d="M83.58,98.68s-9.68,10.87-25.72,1.62C50.6,96.12,44.16,93.7,38,95.73a18.14,18.14,0,0,0-12,15.89c-.56,15.81,17.86,26.21,32.27,13.06Z"/><path id="Leaf_Path" data-name="Leaf Path" class="cls-7" d="M37.72,39.93m0,0C21.5,38.2,5.17,25.94,3.88,0,29,0,42.5,14.9,43.8,38.51c4.76-28.32,27.07-25,27.07-25C71.94,29.55,58.75,39.28,43.8,40.09,39.6,31.25,14.44,9.54,14.44,9.54a.07.07,0,0,0-.11.08S38.61,30.77,37.72,39.93"/></g></g></svg>